<svg xmlns="http://www.w3.org/2000/svg" viewBox="0 0 7980 1456" fill="#000000" fill-rule="evenodd">
  <path stroke="#000000" stroke-width="24" stroke-linejoin="round" stroke-linecap="round" d="M369.43 1134.43 C370.84 1133.02 371.00 1119.03 371.00 995.43 C371.00 848.61 370.78 854.82 375.68 860.25 C376.80 861.49 391.19 881.17 407.67 904.00 C519.49 1058.89 571.66 1130.86 573.85 1133.25 C576.34 1135.96 576.54 1136.00 588.62 1136.00 C603.30 1136.00 596.30 1143.33 641.68 1080.50 C660.35 1054.65 683.28 1022.92 692.64 1010.00 C702.00 997.08 730.17 958.14 755.24 923.49 C800.27 861.23 804.30 855.96 805.76 857.42 C806.17 857.83 806.62 920.08 806.76 995.74 C806.95 1094.87 807.33 1133.69 808.13 1134.66 C809.65 1136.49 851.98 1136.62 853.80 1134.80 C854.72 1133.88 855.00 1090.21 855.00 944.34 C855.00 758.24 854.97 755.05 853.07 754.04 C851.97 753.45 844.39 753.00 835.58 753.00 C816.40 753.00 820.47 749.68 793.25 787.50 C781.77 803.45 748.14 850.02 718.51 891.00 C688.89 931.98 647.99 988.56 627.63 1016.75 C598.40 1057.22 590.16 1068.00 588.45 1068.00 C586.74 1068.00 577.33 1055.62 543.42 1008.75 C519.85 976.16 487.69 931.73 471.96 910.00 C456.24 888.27 425.01 845.08 402.58 814.00 C380.15 782.92 360.69 756.49 359.34 755.25 C357.02 753.12 356.07 753.00 341.38 753.00 C332.60 753.00 325.03 753.45 323.93 754.04 C322.03 755.05 322.00 758.24 322.00 944.34 C322.00 1090.21 322.28 1133.88 323.20 1134.80 C325.21 1136.81 367.39 1136.47 369.43 1134.43 Z M1389.80 1134.80 C1391.81 1132.79 1391.47 1091.61 1389.43 1089.57 C1388.01 1088.15 1369.18 1088.00 1197.13 1088.00 C1050.12 1088.00 1006.12 1087.72 1005.20 1086.80 C1003.47 1085.07 1003.47 971.93 1005.20 970.20 C1006.12 969.28 1045.12 969.00 1174.63 969.00 C1326.23 969.00 1343.01 968.84 1344.43 967.43 C1345.76 966.10 1346.00 962.58 1346.00 944.49 C1346.00 923.53 1345.96 923.08 1343.78 921.56 C1341.79 920.16 1324.07 920.00 1174.36 920.00 C1082.40 920.00 1006.45 919.73 1005.58 919.39 C1002.86 918.35 1003.21 803.49 1005.93 802.04 C1007.25 801.33 1068.81 801.00 1197.86 801.00 C1369.25 801.00 1388.01 800.85 1389.43 799.43 C1391.64 797.21 1391.78 757.45 1389.58 754.44 C1388.18 752.53 1384.83 752.50 1173.23 752.50 C992.54 752.50 958.04 752.72 956.65 753.87 C954.50 755.66 954.05 1132.65 956.20 1134.80 C957.95 1136.55 1388.05 1136.55 1389.80 1134.80 Z M1666.96 1134.07 C1667.67 1132.76 1668.00 1079.30 1668.02 968.32 C1668.02 878.22 1668.38 803.94 1668.81 803.27 C1669.43 802.30 1689.90 801.97 1761.38 801.77 C1850.92 801.51 1853.20 801.45 1854.58 799.56 C1856.75 796.59 1856.63 758.35 1854.44 755.22 C1852.89 753.00 1852.89 753.00 1643.07 753.00 C1449.24 753.00 1433.14 753.13 1431.87 754.65 C1430.83 755.90 1430.42 761.25 1430.18 776.62 C1429.85 796.94 1429.85 796.94 1432.38 799.47 C1434.91 802.00 1434.91 802.00 1525.92 802.00 C1614.88 802.00 1616.95 802.04 1617.96 803.93 C1618.67 805.25 1619.00 858.69 1619.00 969.73 C1619.00 1095.85 1619.28 1133.88 1620.20 1134.80 C1622.52 1137.12 1665.70 1136.44 1666.96 1134.07 Z M2274.56 1133.98 C2303.70 1126.54 2326.29 1104.78 2336.81 1074.00 C2340.80 1062.31 2341.40 1001.59 2337.67 987.00 C2329.52 955.14 2305.23 930.98 2273.00 922.69 C2264.50 920.50 2264.50 920.50 2111.00 920.00 C1957.50 919.50 1957.50 919.50 1952.62 917.23 C1941.91 912.25 1934.55 903.84 1931.11 892.64 C1928.02 882.60 1927.94 839.66 1930.99 829.77 C1934.96 816.91 1944.52 807.30 1957.03 803.58 C1964.62 801.33 2254.32 801.18 2262.76 803.43 C2276.51 807.09 2286.60 817.70 2290.48 832.59 C2291.29 835.70 2292.47 838.86 2293.10 839.62 C2294.52 841.34 2334.92 841.65 2338.07 839.96 C2340.79 838.51 2340.63 830.81 2337.64 819.35 C2329.07 786.44 2303.37 761.93 2270.14 754.96 C2256.83 752.17 1966.68 751.87 1951.50 754.63 C1918.96 760.54 1891.10 786.87 1882.80 819.55 C1879.37 833.05 1879.32 888.86 1882.72 902.21 C1890.49 932.67 1911.90 955.27 1943.00 965.86 C1950.50 968.41 1950.50 968.41 2105.50 968.96 C2250.93 969.47 2260.78 969.61 2265.00 971.28 C2276.04 975.64 2284.45 983.91 2289.18 995.04 C2293.04 1004.12 2292.74 1053.61 2288.77 1062.87 C2283.75 1074.58 2275.82 1082.02 2264.15 1085.95 C2257.98 1088.03 2257.66 1088.03 2108.23 1087.77 C1958.50 1087.50 1958.50 1087.50 1951.82 1084.21 C1940.16 1078.47 1931.87 1067.50 1929.45 1054.61 C1928.25 1048.17 1926.93 1047.84 1903.63 1048.19 C1880.08 1048.55 1880.38 1048.44 1880.73 1056.41 C1882.21 1090.27 1909.85 1123.73 1944.46 1133.55 C1956.46 1136.95 2261.35 1137.34 2274.56 1133.98 Z M2601.43 1134.43 C2602.84 1133.02 2603.00 1119.03 2603.00 995.43 C2603.00 848.61 2602.78 854.82 2607.68 860.25 C2608.80 861.49 2623.19 881.17 2639.67 904.00 C2751.49 1058.89 2803.66 1130.86 2805.85 1133.25 C2808.34 1135.96 2808.54 1136.00 2820.62 1136.00 C2835.30 1136.00 2828.30 1143.33 2873.68 1080.50 C2892.35 1054.65 2915.28 1022.92 2924.64 1010.00 C2934.00 997.08 2962.17 958.14 2987.24 923.49 C3032.27 861.23 3036.30 855.96 3037.76 857.42 C3038.17 857.83 3038.62 920.08 3038.76 995.74 C3038.95 1094.87 3039.33 1133.69 3040.13 1134.66 C3041.65 1136.49 3083.98 1136.62 3085.80 1134.80 C3086.72 1133.88 3087.00 1090.21 3087.00 944.34 C3087.00 758.24 3086.97 755.05 3085.07 754.04 C3083.97 753.45 3076.39 753.00 3067.58 753.00 C3048.40 753.00 3052.47 749.68 3025.25 787.50 C3013.77 803.45 2980.14 850.02 2950.51 891.00 C2920.89 931.98 2879.99 988.56 2859.63 1016.75 C2830.40 1057.22 2822.16 1068.00 2820.45 1068.00 C2818.74 1068.00 2809.33 1055.62 2775.42 1008.75 C2751.85 976.16 2719.69 931.73 2703.96 910.00 C2688.24 888.27 2657.01 845.08 2634.58 814.00 C2612.15 782.92 2592.69 756.49 2591.34 755.25 C2589.02 753.12 2588.07 753.00 2573.38 753.00 C2564.60 753.00 2557.03 753.45 2555.93 754.04 C2554.03 755.05 2554.00 758.24 2554.00 944.34 C2554.00 1090.21 2554.28 1133.88 2555.20 1134.80 C2557.21 1136.81 2599.39 1136.47 2601.43 1134.43 Z M3621.80 1134.80 C3623.81 1132.79 3623.47 1091.61 3621.43 1089.57 C3620.01 1088.15 3601.18 1088.00 3429.13 1088.00 C3282.12 1088.00 3238.12 1087.72 3237.20 1086.80 C3235.47 1085.07 3235.47 971.93 3237.20 970.20 C3238.12 969.28 3277.12 969.00 3406.63 969.00 C3558.23 969.00 3575.01 968.84 3576.43 967.43 C3577.76 966.10 3578.00 962.58 3578.00 944.49 C3578.00 923.53 3577.96 923.08 3575.78 921.56 C3573.79 920.16 3556.07 920.00 3406.36 920.00 C3314.40 920.00 3238.45 919.73 3237.58 919.39 C3234.86 918.35 3235.21 803.49 3237.93 802.04 C3239.25 801.33 3300.81 801.00 3429.86 801.00 C3601.25 801.00 3620.01 800.85 3621.43 799.43 C3623.64 797.21 3623.78 757.45 3621.58 754.44 C3620.18 752.53 3616.83 752.50 3405.23 752.50 C3224.54 752.50 3190.04 752.72 3188.65 753.87 C3186.50 755.66 3186.05 1132.65 3188.20 1134.80 C3189.95 1136.55 3620.05 1136.55 3621.80 1134.80 Z M4077.50 1133.28 C4123.70 1120.46 4156.63 1085.24 4165.65 1039.00 C4168.46 1024.59 4168.49 863.15 4165.69 850.00 C4155.00 799.82 4118.43 763.85 4068.50 754.39 C4055.24 751.88 3712.65 751.39 3709.65 753.87 C3707.49 755.67 3707.05 1132.65 3709.21 1134.81 C3710.16 1135.76 3750.27 1135.97 3889.96 1135.76 C4069.50 1135.50 4069.50 1135.50 4077.50 1133.28 Z M4301.00 1135.02 C4303.67 1133.34 4303.23 756.37 4300.56 754.42 C4297.55 752.22 4257.79 752.36 4255.57 754.57 C4253.49 756.65 4253.13 1132.73 4255.20 1134.80 C4256.68 1136.28 4298.69 1136.48 4301.00 1135.02 Z M4414.19 1134.75 C4415.06 1134.06 4422.87 1122.92 4431.55 1110.00 C4464.18 1061.43 4468.29 1055.44 4470.64 1053.00 C4473.05 1050.50 4473.05 1050.50 4627.00 1050.50 C4780.95 1050.50 4780.95 1050.50 4783.34 1053.00 C4784.66 1054.38 4791.94 1064.72 4799.54 1076.00 C4831.72 1123.79 4836.42 1130.64 4838.83 1133.25 C4841.37 1136.00 4841.37 1136.00 4868.22 1136.00 C4892.29 1136.00 4895.13 1135.83 4895.70 1134.34 C4896.57 1132.07 4904.36 1143.93 4828.50 1032.00 C4816.76 1014.67 4796.52 984.75 4783.51 965.50 C4770.51 946.25 4751.01 917.42 4740.19 901.43 C4729.36 885.44 4703.40 846.97 4682.50 815.96 C4661.60 784.94 4643.08 758.08 4641.35 756.28 C4638.20 753.00 4638.20 753.00 4626.79 753.00 C4612.75 753.00 4616.06 749.87 4591.37 786.49 C4580.99 801.88 4567.10 822.47 4560.50 832.24 C4519.78 892.55 4495.89 927.90 4473.51 961.00 C4459.57 981.62 4437.07 1014.92 4423.52 1035.00 C4409.96 1055.08 4389.87 1084.78 4378.87 1101.00 C4356.95 1133.32 4357.54 1132.36 4358.36 1134.50 C4359.14 1136.53 4411.65 1136.76 4414.19 1134.75 Z M5127.80 1134.80 C5128.71 1133.89 5129.00 1114.33 5129.00 1052.87 C5129.00 980.82 5129.17 971.97 5130.57 970.57 C5132.69 968.45 5477.32 968.13 5478.69 970.25 C5479.14 970.94 5479.73 1008.40 5480.00 1053.50 C5480.50 1135.50 5480.50 1135.50 5502.87 1135.77 C5518.54 1135.96 5525.66 1135.70 5526.62 1134.90 C5528.38 1133.44 5528.72 758.21 5526.96 754.93 C5525.70 752.56 5483.51 751.89 5481.20 754.20 C5480.29 755.11 5480.00 774.59 5480.00 835.77 C5480.00 889.25 5479.65 916.78 5478.96 918.07 C5477.34 921.11 5131.66 921.11 5130.04 918.07 C5129.35 916.78 5129.00 889.48 5129.00 836.50 C5129.00 783.52 5128.65 756.22 5127.96 754.93 C5126.49 752.18 5084.14 751.92 5081.87 754.65 C5079.71 757.26 5079.83 1133.65 5082.00 1135.02 C5084.31 1136.48 5126.32 1136.28 5127.80 1134.80 Z M5983.50 1133.23 C6026.30 1121.07 6058.42 1088.93 6069.68 1047.00 C6072.50 1036.50 6072.50 1036.50 6072.50 944.50 C6072.50 852.50 6072.50 852.50 6070.09 843.50 C6057.57 796.69 6021.62 763.32 5974.00 754.30 C5959.00 751.46 5727.57 751.54 5712.50 754.39 C5661.38 764.08 5623.15 802.70 5614.89 853.00 C5612.89 865.21 5612.85 1023.43 5614.85 1036.00 C5619.74 1066.74 5636.55 1094.14 5662.43 1113.52 C5677.60 1124.88 5689.50 1129.96 5713.50 1135.34 C5714.60 1135.58 5774.00 1135.72 5845.50 1135.64 C5975.50 1135.50 5975.50 1135.50 5983.50 1133.23 Z M6515.50 1133.23 C6558.05 1121.14 6589.91 1089.44 6601.66 1047.50 C6604.46 1037.50 6604.46 1037.50 6604.76 896.40 C6605.04 765.08 6604.95 755.20 6603.38 753.90 C6600.55 751.55 6560.69 751.89 6558.29 754.29 C6556.59 755.98 6556.47 763.29 6556.00 894.79 C6555.50 1033.50 6555.50 1033.50 6553.30 1039.28 C6544.20 1063.10 6525.80 1080.03 6502.56 1085.97 C6490.17 1089.14 6260.80 1089.15 6248.41 1085.98 C6227.20 1080.55 6210.23 1066.77 6201.04 1047.50 C6194.24 1033.24 6194.67 1042.79 6194.06 892.30 C6193.61 781.66 6193.25 754.85 6192.20 753.80 C6191.22 752.82 6185.79 752.50 6169.86 752.50 C6148.87 752.50 6148.82 752.50 6146.88 754.90 C6144.09 758.34 6144.45 1024.70 6147.26 1039.00 C6153.21 1069.22 6169.37 1094.75 6194.43 1113.52 C6209.60 1124.88 6221.50 1129.96 6245.50 1135.34 C6246.60 1135.58 6306.00 1135.72 6377.50 1135.64 C6507.50 1135.50 6507.50 1135.50 6515.50 1133.23 Z M7071.56 1133.92 C7101.70 1126.04 7124.95 1103.04 7134.65 1071.50 C7137.80 1061.27 7137.42 994.43 7134.15 984.03 C7124.45 953.11 7100.96 930.66 7070.00 922.69 C7061.50 920.50 7061.50 920.50 6908.00 920.00 C6754.50 919.50 6754.50 919.50 6749.58 917.23 C6738.28 912.02 6729.92 901.81 6727.47 890.25 C6725.72 882.00 6725.45 842.32 6727.09 833.47 C6729.72 819.22 6740.05 807.73 6753.93 803.61 C6761.61 801.33 7051.23 801.15 7059.76 803.43 C7073.47 807.07 7085.61 820.04 7087.61 833.17 C7088.81 841.09 7088.53 841.00 7112.58 841.00 C7138.38 841.00 7137.49 841.41 7136.44 830.11 C7133.08 793.93 7104.33 762.76 7067.14 754.96 C7053.83 752.17 6763.68 751.87 6748.50 754.63 C6714.95 760.73 6686.35 788.56 6679.29 822.00 C6676.84 833.61 6676.30 879.30 6678.44 893.90 C6683.46 928.09 6705.81 954.22 6740.00 965.86 C6747.50 968.41 6747.50 968.41 6902.50 968.96 C7056.93 969.50 7057.52 969.51 7062.59 971.59 C7073.00 975.88 7079.87 982.10 7085.12 992.00 C7088.67 998.71 7089.37 1053.27 7086.02 1062.22 C7081.86 1073.34 7072.76 1082.04 7061.23 1085.92 C7054.97 1088.03 7054.97 1088.03 6905.23 1087.77 C6755.50 1087.50 6755.50 1087.50 6750.00 1084.90 C6738.64 1079.53 6728.95 1067.79 6727.44 1057.56 C6726.08 1048.32 6725.26 1048.00 6702.61 1048.00 C6678.81 1048.00 6678.00 1048.23 6678.00 1054.89 C6678.00 1088.53 6704.97 1122.30 6740.50 1133.14 C6749.50 1135.89 6749.50 1135.89 6906.56 1135.94 C7062.44 1136.00 7063.68 1135.98 7071.56 1133.92 Z M7657.80 1134.80 C7659.81 1132.79 7659.47 1091.61 7657.43 1089.57 C7656.01 1088.15 7637.18 1088.00 7465.13 1088.00 C7318.12 1088.00 7274.12 1087.72 7273.20 1086.80 C7271.47 1085.07 7271.47 971.93 7273.20 970.20 C7274.12 969.28 7313.12 969.00 7442.63 969.00 C7594.23 969.00 7611.01 968.84 7612.43 967.43 C7613.76 966.10 7614.00 962.58 7614.00 944.49 C7614.00 923.53 7613.96 923.08 7611.78 921.56 C7609.79 920.16 7592.07 920.00 7442.36 920.00 C7350.40 920.00 7274.45 919.73 7273.58 919.39 C7270.86 918.35 7271.21 803.49 7273.93 802.04 C7275.25 801.33 7336.81 801.00 7465.86 801.00 C7637.25 801.00 7656.01 800.85 7657.43 799.43 C7659.64 797.21 7659.78 757.45 7657.58 754.44 C7656.18 752.53 7652.83 752.50 7441.23 752.50 C7260.54 752.50 7226.04 752.72 7224.65 753.87 C7222.50 755.66 7222.05 1132.65 7224.20 1134.80 C7225.95 1136.55 7656.05 1136.55 7657.80 1134.80 Z M3757.57 1086.43 C3755.01 1083.87 3755.19 806.21 3757.75 803.08 C3759.50 800.94 3759.50 800.94 3909.00 801.27 C4075.25 801.65 4064.49 801.19 4078.85 808.43 C4098.53 818.33 4112.51 836.19 4117.12 857.29 C4120.36 872.14 4119.53 1025.97 4116.16 1036.99 C4108.66 1061.46 4089.50 1079.79 4065.06 1085.89 C4053.55 1088.77 3760.42 1089.28 3757.57 1086.43 Z M5716.02 1085.93 C5690.79 1079.33 5670.27 1059.06 5663.94 1034.50 C5662.11 1027.41 5661.32 875.51 5663.04 862.50 C5666.80 834.07 5688.76 809.78 5716.50 803.35 C5728.67 800.53 5958.24 800.48 5970.00 803.30 C5992.79 808.75 6011.76 825.68 6020.79 848.61 C6023.50 855.50 6023.50 855.50 6023.78 941.87 C6024.02 1016.75 6023.85 1029.06 6022.52 1034.37 C6016.38 1058.95 5995.62 1079.56 5970.56 1085.97 C5958.39 1089.08 5727.92 1089.05 5716.02 1085.93 Z M4508.67 1000.33 C4507.07 998.73 4509.15 995.21 4529.75 964.72 C4541.71 947.01 4557.35 923.86 4564.50 913.26 C4632.35 812.71 4625.96 821.49 4628.95 824.56 C4629.99 825.63 4636.38 834.71 4643.17 844.74 C4649.95 854.76 4671.02 885.93 4690.00 914.00 C4708.98 942.06 4729.32 972.11 4735.22 980.76 C4741.12 989.42 4745.96 997.51 4745.97 998.75 C4746.00 1001.00 4746.00 1001.00 4627.67 1001.00 C4562.58 1001.00 4509.03 1000.70 4508.67 1000.33 Z M5494.90 698.55 C5496.44 697.75 5508.23 690.29 5521.10 681.96 C5533.97 673.62 5548.46 664.26 5553.29 661.15 C5558.13 658.04 5567.80 651.77 5574.79 647.20 C5581.78 642.64 5597.74 632.29 5610.25 624.20 C5622.76 616.12 5636.82 607.02 5641.49 604.00 C5646.15 600.98 5656.62 594.25 5664.74 589.06 C5672.86 583.86 5688.50 573.71 5699.50 566.50 C5710.50 559.29 5723.77 550.62 5729.00 547.24 C5752.01 532.35 5794.94 504.59 5823.50 486.13 C5840.55 475.11 5860.22 462.36 5867.22 457.79 C5874.22 453.23 5887.61 444.55 5896.98 438.50 C5906.35 432.45 5922.46 422.02 5932.76 415.33 C5943.07 408.64 5956.68 399.80 5963.00 395.71 C5990.46 377.91 5999.00 372.36 6007.00 367.15 C6030.29 351.95 6038.51 347.00 6040.45 347.00 C6042.61 347.00 6050.69 351.93 6076.31 368.89 C6084.11 374.06 6095.00 381.08 6100.50 384.49 C6106.00 387.89 6117.82 395.47 6126.76 401.33 C6162.26 424.58 6168.89 428.88 6179.00 435.21 C6184.77 438.82 6195.80 446.02 6203.50 451.19 C6211.20 456.37 6222.45 463.64 6228.50 467.35 C6234.55 471.06 6246.53 478.69 6255.13 484.30 C6263.72 489.91 6278.01 499.23 6286.87 505.00 C6295.74 510.77 6313.34 522.25 6325.98 530.50 C6338.63 538.75 6353.95 548.65 6360.03 552.50 C6366.12 556.35 6381.10 566.02 6393.34 574.00 C6405.57 581.98 6418.71 590.50 6422.54 592.95 C6426.37 595.40 6441.88 605.55 6457.00 615.51 C6493.28 639.42 6496.51 641.50 6510.00 649.76 C6516.32 653.63 6528.04 661.23 6536.03 666.65 C6571.53 690.73 6586.95 700.00 6591.51 700.00 C6598.03 700.00 6604.00 694.08 6603.99 687.62 C6603.98 680.33 6602.61 679.07 6577.50 663.51 C6572.00 660.11 6556.02 649.71 6541.98 640.41 C6527.95 631.11 6511.18 620.12 6504.72 616.00 C6498.25 611.88 6482.74 601.78 6470.23 593.57 C6457.73 585.35 6440.30 574.07 6431.50 568.49 C6409.88 554.79 6394.88 545.11 6369.70 528.61 C6358.04 520.97 6342.20 510.80 6334.50 506.01 C6326.80 501.22 6307.68 488.85 6292.00 478.52 C6276.32 468.19 6261.93 458.72 6260.00 457.49 C6258.07 456.25 6245.70 448.30 6232.50 439.82 C6219.30 431.34 6204.29 421.75 6199.14 418.50 C6189.09 412.16 6187.85 410.72 6190.32 408.25 C6191.82 406.75 6215.80 390.89 6230.00 382.01 C6233.57 379.77 6244.74 372.56 6254.82 365.97 C6264.89 359.39 6274.17 354.00 6275.44 354.00 C6276.71 354.00 6284.06 358.16 6291.77 363.25 C6317.53 380.24 6351.25 402.32 6377.00 419.05 C6391.02 428.17 6424.18 449.99 6450.68 467.56 C6477.18 485.13 6519.93 513.37 6545.68 530.32 C6571.43 547.27 6611.06 573.37 6633.74 588.32 C6656.42 603.27 6679.82 618.62 6685.74 622.44 C6691.66 626.25 6714.36 641.21 6736.20 655.67 C6786.91 689.27 6791.51 692.00 6797.42 692.00 C6804.82 692.00 6808.50 688.01 6808.50 679.99 C6808.50 672.67 6811.56 675.39 6780.92 655.50 C6768.20 647.25 6739.43 628.35 6716.99 613.50 C6694.54 598.65 6665.45 579.46 6652.34 570.87 C6639.23 562.27 6611.18 543.78 6590.00 529.79 C6541.81 497.94 6492.22 465.41 6485.00 460.92 C6481.98 459.04 6470.69 451.65 6459.92 444.50 C6437.23 429.44 6393.17 400.46 6354.50 375.15 C6339.65 365.44 6324.35 355.32 6320.50 352.68 C6314.46 348.52 6307.91 344.24 6284.08 328.85 C6276.07 323.68 6273.20 324.33 6254.50 335.52 C6250.09 338.16 6229.29 351.73 6190.54 377.25 C6176.56 386.46 6164.34 394.00 6163.40 394.00 C6161.44 394.00 6145.79 384.02 6087.28 345.50 C6036.89 312.32 6043.33 313.61 6015.50 331.18 C6007.25 336.39 5988.94 348.27 5974.80 357.58 C5960.67 366.88 5941.42 379.45 5932.02 385.50 C5922.63 391.55 5908.76 400.55 5901.21 405.50 C5889.67 413.06 5857.45 433.74 5832.73 449.46 C5829.30 451.64 5819.35 458.05 5810.60 463.71 C5798.22 471.72 5794.41 473.75 5793.35 472.88 C5792.26 471.97 5792.00 464.84 5792.00 436.11 C5792.00 400.46 5792.00 400.46 5789.56 396.88 C5785.44 390.82 5786.62 390.92 5727.25 391.22 C5673.04 391.50 5673.04 391.50 5669.91 394.63 C5665.16 399.38 5665.09 400.64 5665.04 481.66 C5664.99 567.99 5666.97 556.84 5649.87 567.53 C5644.72 570.76 5632.18 578.84 5622.00 585.50 C5611.82 592.15 5594.05 603.64 5582.50 611.03 C5570.95 618.42 5549.57 632.37 5535.00 642.03 C5520.43 651.69 5505.57 661.34 5502.00 663.47 C5482.75 674.94 5476.80 680.59 5476.80 687.41 C5476.80 696.18 5487.15 702.56 5494.90 698.55 Z M5691.67 538.33 C5690.37 537.04 5690.89 418.51 5692.20 417.20 C5693.92 415.48 5764.08 415.48 5765.80 417.20 C5767.35 418.75 5767.53 489.14 5765.99 492.01 C5765.44 493.04 5757.90 498.29 5749.24 503.67 C5740.58 509.04 5724.74 519.19 5714.03 526.22 C5695.12 538.63 5693.07 539.74 5691.67 538.33 Z"/>
</svg>
